<svg width="640" height="480" xmlns="http://www.w3.org/2000/svg" xmlns:svg="http://www.w3.org/2000/svg">
 <!-- Created with SVG-edit - http://svg-edit.googlecode.com/ -->
 <g>
  <title>Layer 1</title>
  <path d="m216,167c0,-1.7 0,-2.60001 0,-3.5c0,-0.92133 0,-1.83333 0,-2.772c0,-0.54933 0,-1.728 0,-2.62349c0,-0.86852 0,-1.93784 0,-2.65184c0,-0.67799 0,-1.87399 0,-2.67799c0,-0.82201 0,-1.85301 0,-2.528c0,-1.08 0.09926,-1.95068 -0.02083,-2.7675c-0.14523,-0.98785 -0.6169,-1.6333 -0.89517,-2.59517c-0.21848,-0.7552 -0.48239,-1.73058 -0.88533,-2.40001c-0.45325,-0.75302 -0.85886,-1.58138 -1.368,-2.284c-0.53741,-0.74165 -1.39197,-0.94234 -2.19467,-1.59999c-0.67635,-0.55412 -1.19028,-1.27228 -2.05733,-1.57468c-0.88,-0.30692 -1.59488,-0.37659 -2.40001,-0.636c-1.18149,-0.38068 -1.77274,-0.60286 -2.65784,-0.8685c-0.83141,-0.24953 -1.83487,-0.46159 -2.52083,-0.5c-1.16504,-0.06523 -1.96095,0.00928 -2.81067,-0.09283c-0.59457,-0.07146 -1.79242,-0.48952 -2.38933,-0.77866c-0.6032,-0.29218 -1.78864,-0.86954 -2.7,-1.035c-0.59467,-0.10797 -1.5,-0.11299 -2.40034,-0.11433c-0.92099,-0.00137 -1.57166,0 -3.03299,0c-0.83467,0 -1.272,0 -2.16667,0c-0.89467,0 -2.16667,0 -2.92799,0c-0.68935,0 -1.60583,0 -2.65051,0c-0.90067,0 -1.92149,0 -2.75349,0c-0.7395,0 -1.668,0 -2.42267,0c-0.84267,0 -1.74133,0 -2.664,0c-0.91466,0 -1.79333,0 -2.62399,0c-0.77467,0 -2.12401,0 -2.94301,0c-0.69299,0 -1.71432,0 -2.51433,0c-1,0 -1.8,0 -2.60001,0c-1.0045,0 -1.85716,0 -2.82132,0c-0.804,0 -1.62601,0 -2.65701,0c-0.87999,0 -1.90016,0 -2.72032,0c-0.83734,0 -1.69434,-0.07381 -2.60583,0.05716c-1.0135,0.14561 -1.63094,0.48047 -2.36617,0.74417c-1.18788,0.42604 -1.88063,0.59651 -2.57867,0.79868c-0.68327,0.19789 -1.8875,0.5824 -2.60899,0.89999c-0.6461,0.28441 -1.61891,0.85352 -2.44167,1.14284c-0.97794,0.34389 -1.81822,0.30556 -2.79984,0.57866c-0.60437,0.16815 -1.32704,0.56267 -2.17484,1.1785c-0.80391,0.58395 -1.4579,1.00664 -2.22667,1.40001c-0.79517,0.40689 -1.59866,0.8 -2.39867,1.2c-0.8,0.39999 -1.6035,0.79311 -2.39867,1.2c-0.76877,0.39337 -1.60513,0.87061 -2.19067,1.40001c-0.74464,0.67323 -1.24476,1.35449 -1.61066,2.16933c-0.33147,0.73816 -0.57352,1.55905 -1,2.54401c-0.28265,0.65279 -0.87087,1.47438 -1.27917,2.18666c-0.53541,0.93402 -0.41092,1.72285 -0.80483,2.61467c-0.32687,0.74002 -0.71067,1.52129 -0.716,2.53799c-0.00365,0.69466 0,1.722 0,2.66884c0,0.69933 0,1.6785 0,2.46783c0,1.04399 0,1.836 0,2.87233c0,0.8 0,1.75951 0,2.55299c0,0.77551 0,1.81601 0,2.668c0,0.94267 0,1.63335 0,2.63817c0,1.02217 0,1.75117 0,2.58817c0,1.19067 0,1.78201 0,2.619c0,1.12917 -0.03701,1.8875 0.0045,2.92467c0.02786,0.69611 0.52818,1.50308 0.874,2.44751c0.27312,0.74586 0.02089,1.74648 0.20683,2.41583c0.29031,1.04507 1.08133,1.65067 1.56733,2.13666c0.69467,0.69467 1.326,1.326 1.97267,1.97267c0.69617,0.69617 1.21061,1.21072 1.77917,1.77916c0.79559,0.79541 1.38821,1.40628 1.83149,1.75951c0.89653,0.71442 1.71358,1.09816 2.57468,1.42534c0.5858,0.22258 1.78934,0.61066 2.38933,0.81065c0.90001,0.3 1.80095,0.59718 2.709,0.90451c0.63335,0.21436 1.30782,0.44598 2.42433,0.86217c0.83788,0.31232 1.72748,0.66008 2.1875,0.83333c0.92992,0.3502 1.38956,0.53699 2.75768,0.9785c0.86017,0.27759 1.69945,0.50534 2.517,0.717c1.20274,0.31139 2.00287,0.5005 2.78317,0.7045c0.75035,0.19617 1.46181,0.36794 2.65199,0.8c0.51318,0.18629 1.44325,0.62273 2.45467,0.99867c0.54622,0.20303 1.41112,0.48946 2.61501,0.68016c0.60547,0.09592 1.57626,0.15607 2.27032,0.2905c1.18153,0.22884 2.03606,0.53648 2.48,0.692c0.90158,0.31584 1.7796,0.66064 2.61601,0.972c1.1167,0.4157 1.79094,0.64793 2.42433,0.86217c1.20782,0.40851 1.81158,0.61047 2.745,0.90451c0.64804,0.20415 1.68344,0.50566 2.40767,0.6955c1.05681,0.27701 1.70631,0.39687 2.89383,0.65633c0.66617,0.14555 1.63046,0.61856 2.12384,0.89883c0.78833,0.44783 1.80927,0.94083 2.51334,1.088c0.90118,0.18839 1.9155,0.32629 2.72533,0.58217c0.82277,0.25996 1.8098,0.68613 2.45833,0.95834c0.87039,0.36534 1.76767,0.52136 2.45233,0.95683c0.79587,0.5062 1.44113,0.96568 2.276,1.44933c0.7393,0.42828 1.54668,0.93918 2.08801,1.32533c1.07504,0.76686 1.52589,1.20383 2.2045,1.74767c0.60727,0.48666 1.6274,0.88644 2.36366,1.08984c0.91721,0.25339 1.6277,0.98445 2.17799,1.45183c0.76251,0.64761 1.51021,0.95158 2.3125,1.5c0.67429,0.46092 1.36667,1.2 1.96667,1.8c0.59999,0.59999 1.3376,1.26741 1.8,1.836c0.65494,0.80533 1.00301,1.52496 1.31599,2.47867c0.28693,0.87425 0.59776,1.51965 1.06934,2.28532c0.51999,0.84428 1.27942,1.15366 1.993,1.92134c0.4277,0.46013 0.76912,1.54193 1.08301,2.304c0.30231,0.73395 1.00177,1.35347 1.37067,1.976c0.56013,0.94525 0.55127,1.81625 0.85199,2.79733c0.23991,0.78273 0.65515,1.57443 0.716,2.60133c0.04733,0.7986 0.00458,1.73064 0.436,2.41066c0.50529,0.79645 1.02638,1.41125 1.27866,2.276c0.2845,0.97523 0.27016,1.79239 0.28401,2.54401c0.02023,1.09721 0.38741,1.90768 0.71733,2.56934c0.42055,0.84335 0.284,1.8 0.284,2.7c0,0.89999 0.12335,1.8667 -0.33333,2.66667c-0.42595,0.74614 -1.07454,1.23897 -1.66667,1.83333c-0.59888,0.60114 -1.2,1.20001 -2,2c-0.5955,0.59549 -1.15871,1.16934 -1.83333,1.83334c-0.66151,0.65109 -1.33159,1.16959 -1.992,1.56665c-1.00534,0.60446 -1.51384,1.04996 -2.34134,1.60001c-0.66469,0.4418 -1.34383,0.72424 -2.476,1.10016c-0.65813,0.21854 -1.36899,0.38885 -2.052,0.65701c-1.28687,0.50525 -1.81279,0.86383 -2.448,1.41748c-0.87427,0.76202 -1.45792,1.45026 -2.17867,1.92535c-0.65773,0.43356 -1.54022,0.86551 -2.15784,1.39999c-0.76053,0.65817 -1.31567,1.22354 -2.29016,1.41599c-0.74185,0.14648 -1.56516,0.09641 -2.54666,0.36935c-0.93047,0.25876 -1.8455,0.72879 -2.63667,1.01016c-0.54395,0.19345 -1.35208,0.49191 -2.59917,0.64734c-0.70557,0.08795 -1.78149,0.05716 -2.4175,0.05716c-1.0515,0 -1.7825,0 -2.864,0c-0.68134,0 -1.64584,0 -2.26218,0c-1.2045,0 -2.10449,0 -2.7045,0c-1.2,0 -2.09549,0 -2.964,0c-1.06932,0 -1.78333,0 -2.46132,0c-1.19617,0 -2.01067,0 -2.58534,0c-1.18933,0 -2.08932,0 -2.68933,0c-0.89999,0 -2.10001,0 -2.7,0c-0.90001,0 -2.10001,0 -2.7,0c-0.90001,0 -2.10001,0 -2.9955,0c-0.58368,0 -1.41959,0.02768 -2.64734,-0.00449c-0.64705,-0.01694 -1.65532,-0.22223 -2.45717,-0.49551c-0.99774,-0.34006 -1.80797,-0.38748 -2.51466,-0.58401c-0.88577,-0.24634 -1.49799,-1.14386 -2.24251,-1.55881c-0.82991,-0.46255 -1.67099,-0.32529 -2.64149,-0.64252c-0.79045,-0.25836 -1.53827,-0.875 -2.19067,-1.27866c-0.76872,-0.47565 -1.78555,-0.2655 -2.612,-0.72266c-0.63979,-0.35391 -1.27373,-1.20822 -1.81949,-1.71335c-0.57001,-0.52756 -1.36501,-1.13937 -2.17917,-1.58932c-0.78705,-0.43497 -1.6188,-0.79065 -2.2,-1.16785c-1.03633,-0.67258 -1.55586,-1.28757 -2.20001,-1.67349c-0.94568,-0.56656 -1.83974,-0.59277 -2.59999,-1.01218c-0.64053,-0.35336 -1.16612,-0.95554 -2.19867,-1.67181c-0.5632,-0.39069 -1.46339,-0.85031 -2.0805,-1.38535c-0.75847,-0.65762 -1.34703,-1.15179 -2.22083,-1.55267c-0.72539,-0.33279 -1.32142,-1.14929 -2,-1.59016c-0.79234,-0.51479 -1.11268,-1.089 -1.33601,-1.95717c-0.2252,-0.87546 -0.99525,-1.54916 -1.35333,-2.22533c-0.3573,-0.67468 -0.55344,-1.69302 -0.89466,-2.65866c-0.24966,-0.70653 -0.48852,-1.68457 -0.88267,-2.51601c-0.33226,-0.70088 -0.92744,-1.32484 -1.33334,-2c-0.59146,-0.98386 -1.0519,-1.46451 -1.6,-2.32167c-0.44371,-0.69392 -0.71082,-1.36072 -1.1,-2.36099c-0.30862,-0.79321 -0.56786,-1.56531 -1.0955,-2.50751c-0.39552,-0.70627 -0.60383,-1.67178 -0.87383,-2.41116c-0.3064,-0.83904 -0.87019,-1.38368 -1.348,-1.99867c-0.75576,-0.97272 -1.0071,-1.60896 -1.68266,-2.51466c-0.45822,-0.61432 -1.29958,-1.21999 -1.67867,-1.98534c-0.41942,-0.84677 -0.77495,-1.46042 -1.41683,-2.2c-0.57861,-0.66669 -0.30114,-1.63666 -0.78983,-2.41466c-0.46487,-0.74008 -1.25146,-1.1366 -1.88934,-1.71068c-0.57872,-0.52086 -1.01466,-1.18533 -1.04617,-2.07466l-0.33183,-0.8l-0.52583,-0.8l-0.1215,-0.89999" id="svg_2" stroke-width="5" stroke="#000000" fill="#7f0000"/>
  <path d="m269,131c1.79999,0 2.70193,0.03543 3.3215,0.66467c0.58383,0.59293 0.9003,1.19646 1.27982,1.82466c0.617,1.02133 1.00272,1.76573 1.39868,2.53149c0.40411,0.78156 0.99921,1.97957 1.20001,2.37885c0.39841,0.79213 0.78333,1.56807 1.19998,2.286c0.57721,0.99458 1.1918,1.80302 1.57916,2.27266c0.53049,0.64319 1.25717,1.64119 1.61017,2.20567c0.5997,0.95895 1.05673,1.43098 1.61069,2.32133c0.43756,0.70329 0.79999,1.51466 1.19998,2.31467c0.39999,0.8 0.7438,1.63432 1.23599,2.364c0.47766,0.70813 1.25977,1.14703 1.88,1.80533c0.68521,0.72725 0.96625,1.55026 1.1795,2.0825c0.41043,1.02432 0.8002,1.92944 1.10449,2.54683c0.49304,1.00031 0.88608,1.75334 1.39868,2.51733c0.43253,0.64462 0.65414,1.55704 0.88535,2.40001c0.24438,0.8911 0.75964,1.64871 0.91599,2.50482c0.17844,0.9771 0.45303,1.76964 0.64734,2.37917c0.31409,0.98532 0.31726,1.97699 0.70532,2.84734c0.29852,0.66953 0.59174,1.60907 0.75717,2.21434c0.26791,0.98015 0.7565,1.78233 1.0755,2.38499c0.33731,0.63722 0.82642,1.6636 1.168,2.76801c0.22192,0.71758 0.39804,1.41022 0.56265,2.62c0.10941,0.80396 0.12244,1.38664 0.25067,2.43201c0.10684,0.87086 0.26559,1.83531 0.35419,2.33333c0.17621,0.99069 0.45819,2.33945 0.68048,3.06134c0.19147,0.6218 0.55511,1.43536 1.12,2.58167c0.33093,0.67154 0.68646,1.39519 1.026,2.166c0.17264,0.39194 0.64053,1.5876 0.89551,2.38199c0.24539,0.76448 0.4202,1.50546 0.85699,2.76601c0.26965,0.77817 0.60837,1.41855 0.81616,2.44299c0.16049,0.79132 0.29483,1.80421 0.60486,2.64168c0.27118,0.7325 0.58444,1.59944 0.87915,2.60899c0.20364,0.69762 0.37265,1.39079 0.79868,2.57867c0.2637,0.73523 0.59778,1.35291 0.74417,2.37517c0.12112,0.84566 0.05716,1.81715 0.05716,2.64217c0,0.91499 0,1.92 0,2.63733c0,0.74133 0,1.49066 0,2.94933c0,0.68401 0,1.35201 0,2.37651c0,1.12349 0,1.95816 0,2.84082c0,0.44934 0,1.34401 0,2.61601c0,0.76132 0,1.77083 0,2.36716c0,1.28084 0,1.94534 0,2.96617c0,0.8 0,1.60001 0,2.5955c0,0.91916 -0.06442,1.79906 0.22134,2.726c0.22177,0.71939 0.66336,1.67169 0.74265,2.46783c0.10352,1.03947 0.03601,1.75233 0.03601,2.71066c0,0.867 0,1.54167 0,2.25633c0,1.42233 0,2.091 0,3.069c0,0.65866 0,1.69617 0,2.43184c0,0.76366 -0.00101,1.54733 0,2.74283c0.00067,0.79866 0.00079,1.98039 0.05716,2.74283c0.08081,1.09302 0.21548,1.77316 0.44284,2.71552c0.14035,0.58173 0.44028,1.85294 0.47916,2.5c0.06122,1.01852 0.02084,1.84033 0.02084,2.74167c0,0.89999 -0.05289,1.83472 0.35266,2.59998c0.4483,0.84592 0.64734,1.70001 0.64734,2.5c0,0.90002 0,1.80002 0,2.70001c0,0.89999 -0.19693,1.82214 0.00134,2.69867c0.18066,0.79868 0.83817,0.29178 1.35583,-0.49866c0.52069,-0.79507 1.11871,-1.35254 1.61749,-2.08936c0.45157,-0.66705 1.01898,-1.23819 1.45065,-2.01065c0.45782,-0.81924 0.80966,-1.55771 1.22202,-2.30002c0.45795,-0.8244 0.99664,-1.35464 1.43668,-2.10132c0.41284,-0.70053 0.84753,-1.50684 1.41599,-2.19867c0.51138,-0.62238 1.03989,-1.35928 1.33334,-2.16666c0.28333,-0.77951 0.73874,-1.4476 1.13065,-2.26935c0.37427,-0.78476 0.20267,-1.73065 0.53601,-2.564c0.33334,-0.83334 0.48926,-1.58934 0.5,-2.5c0.01062,-0.89999 0.47025,-1.73241 0.83334,-2.5c0.3371,-0.7126 0.55518,-1.63852 0.814,-2.34734c0.36871,-1.00981 0.29468,-1.97827 0.3735,-2.65266c0.11597,-0.99211 0.75162,-1.63622 1.27466,-2.3045c0.62631,-0.80022 0.47482,-1.79007 0.98849,-2.52617c0.48264,-0.69162 0.55325,-1.42619 0.93735,-2.26933c0.35535,-0.78001 0.76797,-1.5 0.77866,-2.39999c0.01068,-0.89999 0.31104,-1.68268 0.80133,-2.38533c0.52228,-0.74849 0.97745,-1.4287 1.16266,-2.47867c0.16275,-0.92264 0.26968,-1.72739 0.74051,-2.39317c0.50748,-0.71761 1.00897,-1.37576 1.23834,-2.48566c0.17386,-0.84131 0.27173,-1.72725 0.63184,-2.35718c0.49405,-0.86418 0.92584,-1.61879 1.25867,-2.39999c0.32019,-0.75154 0.19769,-1.76617 0.51932,-2.65717c0.27277,-0.7556 0.4874,-1.55066 0.66818,-2.36366c0.25778,-1.15938 0.53732,-1.66725 0.97916,-2.45834c0.42267,-0.75679 0.88873,-1.71587 1.08267,-2.48883c0.20117,-0.80171 0.42191,-1.55875 0.71866,-2.34933c0.37683,-1.00394 0.88065,-1.80089 1.11334,-2.79866c0.17548,-0.7524 -0.00598,-1.72815 0.17065,-2.40001c0.26663,-1.01418 0.7511,-1.83105 1.13602,-2.584c0.39017,-0.76318 0.77054,-1.51762 1.20398,-2.29999c0.45505,-0.82132 0.51303,-1.77051 0.59552,-2.60001c0.08371,-0.84184 0.55615,-1.49023 0.97916,-2.33333c0.45132,-0.89951 0.61624,-1.43996 0.83334,-2.5c0.18674,-0.91187 0.00238,-1.84114 0.6875,-2.625c0.60446,-0.69157 1.42746,-1.10936 1.46848,-1.763c0.06128,-0.97664 -0.06497,-1.97643 0.23203,-2.75734c0.31406,-0.82579 0.65375,-1.68887 0.83133,-2.36867c0.27463,-1.05125 1.03845,-1.57852 1.51132,-2.25267c0.52185,-0.74397 0.66434,-1.71851 0.936,-2.39999c0.38852,-0.97456 0.48129,-1.79886 0.5,-2.7c0.01868,-0.90053 0.61292,-1.61208 0.91467,-2.5c0.25888,-0.76175 -0.11914,-1.63698 0.14249,-2.5c0.26828,-0.8849 1.24442,-1.43286 1.58566,-2.05717c0.45569,-0.83371 0.34363,-1.6651 0.64117,-2.64149c0.23865,-0.78313 0.63986,-1.71516 0.716,-2.60133c0.065,-0.75653 0.40237,-1.63339 0.716,-2.51601c0.29584,-0.8325 0.12393,-1.84811 0.50549,-2.584c0.4184,-0.80693 1.37888,-1.19617 1.69318,-2.10133c0.3179,-0.91547 0.03662,-1.62517 0.08533,-2.63199c0.04272,-0.8831 0.91626,-1.32098 1,-2.16667c0.07883,-0.79611 0.3707,-1.42892 0.87851,-2.2215c0.47845,-0.74675 -0.05496,-1.81775 0.20682,-2.57851c0.26825,-0.77956 1.24368,-1.32024 1.62933,-2.08533c0.36227,-0.71872 0.25195,-1.71671 0.28983,-2.71017c0.02853,-0.74864 0.49228,-1.57318 0.82886,-2.4045c0.30658,-0.7572 0.53735,-1.42892 1.04517,-2.2215c0.47845,-0.74675 0.08429,-1.77937 0.12149,-2.57851c0.04272,-0.91763 0.95444,-1.11247 1.564,-1.81067c0.58197,-0.66658 0.44049,-1.68483 0.86133,-2.364l0.57468,-0.54616l0.35266,-0.77917" id="svg_3" stroke-width="5" stroke="#000000" fill="#007fff"/>
  <path d="m537,152c0,-1.7 0.00531,-2.60002 0,-3.5c-0.00537,-0.90004 -0.36725,-1.80464 -0.76166,-2.31433c-0.73279,-0.94701 -1.07452,-1.43994 -1.58569,-2.2375c-0.49658,-0.77478 -0.90497,-1.48604 -1.34814,-2.34366c-0.41339,-0.79997 -0.80396,-1.60478 -1.10449,-2.20451c-0.49908,-0.99596 -0.87231,-1.76146 -1.39868,-2.51466c-0.49078,-0.70229 -0.8468,-1.65755 -1.51117,-2.18533c-0.59222,-0.47049 -1.45825,-1.12048 -2.29016,-1.53333c-0.6571,-0.3261 -1.51251,-0.7394 -2.33331,-1.16667c-0.66901,-0.34825 -1.56067,-0.63419 -2.23999,-0.88533c-1.17084,-0.43286 -1.59576,-0.60291 -2.49872,-0.94c-0.94769,-0.35379 -1.4292,-0.54642 -2.92798,-1.008c-0.49725,-0.15314 -1.48969,-0.41086 -1.97864,-0.52c-0.9469,-0.21136 -1.84808,-0.38098 -3.07837,-0.5255c-0.72733,-0.08543 -1.73129,-0.13718 -2.34033,-0.2905c-1.22745,-0.30899 -1.78333,-0.69843 -2.64551,-1.12534c-0.78293,-0.38767 -1.72977,-0.66158 -2.40982,-0.69633c-0.96744,-0.04944 -1.77609,0.0219 -2.59467,-0.06617c-1.03833,-0.11172 -1.94183,-0.48077 -2.63666,-0.65884c-0.98889,-0.25343 -1.8367,-0.27225 -2.71735,-0.28266c-0.89844,-0.01061 -1.78799,-0.00134 -2.64151,-0.00134c-1.03583,0 -1.73181,0 -2.64114,0c-1.00134,0 -1.83685,0 -2.71735,0c-0.89865,0 -1.79868,0 -2.69867,0c-0.89999,0 -1.7955,0 -2.664,0c-1.06934,0 -1.78333,0 -2.68866,0c-0.96866,0 -1.77267,0 -2.59467,0c-1.03134,0 -1.72733,0 -2.63666,0c-1,0 -1.81601,0 -2.63202,0c-1.00131,0 -1.94531,0 -3.01733,0c-0.63464,0 -1.31732,0 -2.36133,0c-0.97198,0 -1.79099,0 -2.69632,0c-1.01035,0 -1.845,0 -2.77567,0c-0.7905,0 -1.64401,0 -2.83334,0c-0.59732,0 -1.45834,0 -2.22934,0c-1.10931,0 -2.10156,-0.0798 -2.7915,0.04166c-1.0062,0.17715 -1.57492,0.67999 -2.21515,1.14367c-0.91846,0.66519 -1.71158,1.06985 -2.53867,1.40401c-0.53815,0.21741 -1.79953,0.65587 -2.37866,1.04666c-0.88916,0.60002 -1.22092,1.49295 -2.01334,2.03067c-0.58969,0.40015 -1.71655,0.42265 -2.33334,0.875c-0.73688,0.54042 -1.32535,1.28368 -1.84732,1.80566c-0.76868,0.76868 -1.28506,1.27103 -1.974,1.97433c-0.50928,0.5199 -1.08679,1.10266 -1.65735,2.09967c-0.44513,0.77785 -0.58234,1.38878 -1.18799,2.41199c-0.43677,0.73788 -1.07877,1.29575 -1.5,2.16667c-0.37231,0.76978 -0.33725,1.46654 -0.61868,2.68666c-0.13034,0.56509 -0.42563,1.47313 -0.71466,2.48001c-0.20593,0.71735 -0.40198,1.47191 -0.63599,2.24399c-0.24048,0.79343 -0.68134,1.99077 -1.01218,2.78484c-0.32718,0.78528 -0.69589,1.5302 -1.01849,2.63783c-0.19589,0.67255 -0.28922,1.32921 -0.32434,2.26218c-0.04532,1.20334 0.08258,1.80922 -0.08099,2.63249c-0.23163,1.16582 -1.01147,1.70692 -1.36002,2.24001c-0.62509,0.95602 -0.56805,1.85522 -0.65067,2.43466c-0.17117,1.20068 -0.42746,2.07396 -0.56467,2.64017c-0.24988,1.03119 -0.20929,1.95753 -0.57401,2.93584c-0.25742,0.69048 -0.69583,1.50917 -0.80399,2.304c-0.14291,1.05045 -0.25729,1.68562 -0.47467,2.71733c-0.14642,0.69487 -0.34146,1.66562 -0.47467,2.728c-0.08307,0.6624 -0.31699,1.6678 -0.60001,2.436c-0.34949,0.94856 -0.42465,1.72 -0.42532,2.68266c-0.00058,0.84 0.02109,1.83818 -0.02084,2.65334c-0.04202,0.81746 -0.26913,1.81554 -0.47916,2.52083c-0.22235,0.74664 -0.42694,1.9464 -0.46399,2.62984c-0.03787,0.6981 -0.03601,2.01601 -0.03601,2.84399c0,0.75601 0,1.83867 0,2.47467c0,0.692 0,1.7825 0,2.864c0,0.68268 0,1.66667 0,2.31934c0,1.01401 0,2.0955 0,2.82651c0,0.711 0,1.97816 0,2.77016c0,0.75601 0,1.89351 0,2.5605c0,0.711 0,1.442 0,2.86833c0,0.65567 0,1.53917 0,2.67917c0,0.79333 0,1.6855 0,2.40401c0,0.7905 0,1.81732 0,2.73866c0,0.68401 0,1.68533 0,2.52083c0,0.88051 0,2.07918 0,2.67917c0,0.90001 0,2.10017 0,2.7045c0,0.9315 0,1.58084 0,2.98351c0,0.76933 0,1.59467 0,2.03084c0,1.41449 0,2.44783 0,2.98199c0,1.07834 0,1.6125 0,2.64583c0,0.95334 0,1.79868 0,2.556c0,1.041 0,2.06401 0,2.78c0,1.09651 0,1.80751 0,2.78401c0,0.8235 0,1.78149 0,2.7545c0,0.79349 0,1.569 0,2.6095c0,0.85199 0,1.79466 0,2.80266c0,0.79201 0,1.65068 0,2.51399c0,1.01669 0,1.854 0,2.81934c0,0.83334 -0.02597,1.66708 0,2.52884c0.02859,0.94861 0.83911,1.1853 1.47916,1.82535c0.64005,0.64005 0.98309,1.40408 1.84216,1.7005c0.69354,0.23929 1.69559,0.55521 2.43134,0.88849c0.78946,0.3576 1.27713,0.94577 1.93402,1.49283c0.98135,0.81726 1.53741,1.2056 2.12399,1.56134c1.1669,0.7077 1.78088,0.97165 2.38934,1.18933c0.88885,0.31802 2.09909,0.53357 2.69998,0.59399c0.89883,0.09036 2.10422,0.19974 2.69867,0.33801c0.88776,0.20648 1.71829,0.51028 2.71735,0.91333c0.68558,0.27658 1.35779,0.57645 2.36932,0.716c0.83014,0.11453 1.71603,0.07941 2.6145,0.08548c0.88953,0.00601 1.75815,-0.01984 2.7785,0.22119c0.89835,0.21219 1.74411,0.68463 2.547,0.76797c0.85416,0.08868 1.72198,0.01068 2.73868,0.01068c0.836,0 1.73615,0 2.52133,0c0.94,0 1.948,0 2.73999,0c0.85867,0 1.72198,0 2.62201,0c0.91931,0 1.78928,-0.06119 2.75266,0.16666c0.80835,0.19119 1.48984,0.66867 2.47916,0.8125c0.92206,0.13403 1.84216,0.02084 2.6955,0.02084c0.94135,0 1.70935,0 2.6507,0c0.69064,0 1.76398,0 2.6955,0c0.80048,0 1.65381,0 2.59515,0c1.05066,0 1.70935,0 2.71735,0c0.86215,0 1.76669,0.00534 2.66666,0c0.90005,-0.00534 1.62274,-0.41837 2.5,-0.83334c0.71259,-0.3371 1.64172,-0.5466 2.34732,-0.814c0.88315,-0.33466 1.68393,-0.68958 2.45267,-1.06866c0.84525,-0.41684 1.87198,0.0441 2.67917,-0.30484c0.71399,-0.30865 1.34909,-0.5665 2.16367,-1.03632c0.68686,-0.39618 1.50613,-0.60565 2.19052,-1.1095c0.65298,-0.48074 0.90378,-1.44507 1.60266,-1.79733c0.86142,-0.4342 1.91412,0.03696 2.53867,-0.46133c0.63104,-0.50348 1.34128,-0.80927 2.19998,-1.14935c0.79889,-0.31638 1.57272,-0.74225 2.10934,-1.34131c0.58255,-0.65033 1.11694,-1.25879 1.90134,-1.64801c0.88907,-0.44119 1.57562,-0.7496 2.16733,-1.38333c0.54114,-0.57959 1.42291,-0.7963 2.07935,-1.13669c0.80524,-0.41757 1.35284,-1.17896 1.73468,-1.91599c0.39063,-0.75397 0.75421,-1.59113 1.40131,-2.20001c0.6424,-0.60449 1.27948,-1.21048 1.43652,-2.09998c0.1441,-0.81625 0.47754,-1.63708 1.04816,-2.34285c0.59106,-0.73106 1.09064,-1.26257 1.65265,-2.01433c0.42487,-0.56833 0.98279,-1.33568 1.23334,-2.12151c0.30939,-0.97038 0.9248,-1.54738 1.48669,-2.196c0.50934,-0.58789 0.57397,-1.42532 0.57465,-2.32533c0.00067,-0.89867 0.54773,-1.51895 0.91602,-2.26933c0.34998,-0.7131 0.60809,-1.58957 0.96246,-2.53067c0.25031,-0.66467 0.45209,-1.40297 0.95483,-2.23332c0.36401,-0.6012 0.16669,-1.78134 0.16669,-2.66667l0.16669,-0.83333" id="svg_4" stroke-width="5" stroke="#000000" fill="#007f7f"/>
  <path d="m474,199c0.61066,1.60001 1.2713,2.3414 1.88535,2.8c0.73984,0.55254 1.34872,0.83073 2.53616,1.29984c0.53036,0.20953 1.37845,0.51688 2.57849,0.73349c0.59714,0.10779 1.52069,0.15295 2.15717,0.16217c1.36423,0.01974 2.10001,0.0045 2.86368,0.0045c0.78366,0 1.97916,0 2.77914,0c0.80002,0 1.60001,0 2.40002,0c1.19998,0 2,0 2.79999,0c0.79999,0 2,0 2.79868,0c0.79065,0 1.56534,0 2.31598,0c1.40134,0 2.06,0 2.71069,0c1.34131,0 2.05731,0 2.78931,0c0.724,0 2.052,0 2.86652,0c0.85266,0 1.76617,0 2.68549,0c0.85419,0 1.83334,0 2.63333,0c0.79999,0 1.79999,0 2.60004,0c0.99866,0 1.76398,0 2.716,0c1.05066,0 1.71997,0 2.48529,0c0.99866,0 1.79871,0 2.79736,0c0.94415,0 1.84863,0 2.76801,0c0.875,0 1.51996,0 2.51599,0c0.79651,0 1.98401,0 2.79651,0c1.00482,0 1.6955,0 2.63684,0c1.05066,0 1.70929,0 2.71729,0c0.86218,0 1.76666,0 2.66669,0c0.90002,0 1.80902,0 2.83331,0c0.67651,0 1.45203,0 2.5,0c0.93066,0 1.56219,0 2.56671,0c0.79999,0 1.79999,0 2.59998,0c1,0 1.97919,0 2.83331,0c0.86218,0 1.80267,0 2.6507,0c0.86334,0 1.75885,0 2.716,0c0.90015,0 1.6853,0 2.63599,0c0.76532,0 1.75952,0 2.50684,0c1.03186,0 1.97852,0 2.83185,0c0.94263,0 1.63513,0 2.59467,0c0.75146,0 1.54797,0 2.76898,0c0.79999,0 1.70453,0 2.66168,0c0.90015,0 1.6853,0 2.63599,0c0.76532,0 1.75952,0 2.50684,0c1.02118,0 1.95715,0 2.85718,0c0.89996,0 1.79999,0 2.59998,0l0.90002,0" id="svg_6" stroke-width="5" stroke="#000000" fill="none"/>
  <path d="m530,217c0,1.8 0,2.7 0,3.60001c0,0.81065 0,1.72133 0,2.57466c0,0.94 0,1.92534 0,2.82533c0,0.8 0,1.7 0,2.60001c0,0.89999 0,1.79999 0,2.7c0,0.89999 0,1.8 0,2.5c0,1 0,1.89999 0,2.8c0,0.79999 0,1.7 0,2.59999c0,0.90001 0,1.8 0,2.60001c0,0.89999 0,1.8 0,2.7c0,0.89999 0,1.8 0,2.7c0,0.90001 0,1.8 0,2.60001c0,0.89999 0,1.8 0,2.7c0,0.89999 0,1.8 0,2.7c0,0.90001 0,1.8 0,2.59999c0,0.90002 0,1.80002 0,2.70001c0,0.91068 0,1.82132 0,2.67465c0,0.94 0,1.82535 0,2.71069c0,0.94 0,1.63065 0,2.61465c0,0.98401 0,1.67465 0,2.74283c0,0.95718 0,1.85718 0,2.75717c0,0.79999 0,1.70001 0,2.60001c0,0.89999 0,1.79999 0,2.69998c0,0.90002 0,1.80002 0,2.70001c0,0.79999 0,1.70001 0,2.60001c0,0.89999 0,1.7045 0,2.72131c0,0.67868 0,1.65717 0,2.67868c0,0.79999 0,1.70001 0,2.60001c0,0.89999 0,1.79999 0,2.69998c0,0.90002 0,1.80002 0,2.70001c0,0.79999 0,1.70001 0.05719,2.58566l0.70447,-0.29468" id="svg_7" stroke-width="5" stroke="#000000" fill="none"/>
  <path d="m530,213c0,-1.7 0,-2.60001 0,-3.5c0,-0.89999 0,-1.8 0,-2.7c0,-0.90001 0,-1.8 0,-2.60001l0,-0.89999l0,-0.90001" id="svg_8" stroke-width="5" stroke="#000000" fill="none"/>
 </g>
</svg>